<svg width="409" height="223" viewBox="0 0 409 223" fill="none" xmlns="http://www.w3.org/2000/svg">
<g style="mix-blend-mode:darken">
<path d="M164.785 195.145C164.785 195.145 166.513 20.3056 175.744 16.1911C184.974 12.0766 264.744 16.1911 264.744 16.1911C316.927 17.5824 399.69 19.9302 399.69 19.9302C397.311 96.2529 395.195 118.823 392.817 195.145C303.049 191.908 252.262 200.669 164.785 195.145Z" fill="#529AED"/>
<path d="M164.785 195.145C164.785 195.145 166.513 20.3056 175.744 16.1911C184.974 12.0766 264.744 16.1911 264.744 16.1911C316.927 17.5824 399.69 19.9302 399.69 19.9302C397.311 96.2529 395.195 118.823 392.817 195.145C303.049 191.908 252.262 200.669 164.785 195.145Z" stroke="#4C4C4C" stroke-width="2"/>
</g>
<g style="mix-blend-mode:darken">
<path d="M164.785 195.145C164.785 195.145 166.513 20.3056 175.744 16.1911C184.974 12.0766 264.744 16.1911 264.744 16.1911C316.927 17.5824 399.69 19.9302 399.69 19.9302C397.311 96.2529 395.195 118.823 392.817 195.145C303.049 191.908 252.262 200.669 164.785 195.145Z" fill="#529AED"/>
<path d="M164.785 195.145C164.785 195.145 166.513 20.3056 175.744 16.1911C184.974 12.0766 264.744 16.1911 264.744 16.1911C316.927 17.5824 399.69 19.9302 399.69 19.9302C397.311 96.2529 395.195 118.823 392.817 195.145C303.049 191.908 252.262 200.669 164.785 195.145Z" stroke="#4C4C4C" stroke-width="2"/>
</g>
<g style="mix-blend-mode:darken">
<path d="M387.604 194.467C297.837 191.229 247.483 200.75 160.006 195.227C160.006 195.227 161.3 19.627 170.531 15.5125C179.762 11.398 259.531 15.5125 259.531 15.5125" stroke="#4C4C4C" stroke-width="2"/>
</g>
<path d="M62.8657 119.041L160.548 194.138V119.041H62.8657Z" fill="#A6B9CF" fill-opacity="0.51" stroke="black" stroke-width="2"/>
<path d="M61.2378 119.041V146.795C89.4335 177.696 120.916 193.964 159.463 220.259C254.832 222.59 297.448 222.02 392.816 219.171C394.671 204.72 395.747 207.501 392.816 193.05H159.463L61.2378 119.041Z" fill="#529AED" stroke="#4C4C4C" stroke-width="2"/>
<path d="M32.4756 51.5629L17.8231 66.7999L48.756 89.1114L32.4756 51.5629Z" fill="#FBE885"/>
<path d="M1 81.4928L48.756 102.172V111.423L1 118.497V81.4928Z" fill="#FBE885"/>
<path d="M32.4756 51.5629L17.8231 66.7999L48.756 89.1114L32.4756 51.5629Z" stroke="#529AED"/>
<path d="M1 81.4928L48.756 102.172V111.423L1 118.497V81.4928Z" stroke="#529AED"/>
<path d="M76.7417 96.1857L59.9186 86.9346L62.3231 27.6189L132.329 48.842L76.7417 96.1857Z" fill="#FBE885" stroke="#529AED"/>
<path d="M282.109 78.772L288.932 101.333H311.012L293.149 115.277L299.972 137.838L282.109 123.894L264.246 137.838L271.069 115.277L253.207 101.333H275.286L282.109 78.772Z" fill="#CD4B91"/>
<path d="M316.298 59.1814L318.37 65.9498H325.072L319.65 70.1328L321.721 76.9012L316.298 72.7181L310.876 76.9012L312.947 70.1328L307.524 65.9498H314.227L316.298 59.1814Z" fill="#CD4B91"/>
<path d="M340.719 74.4185L344.13 85.6991H355.17L346.239 92.6709L349.65 103.952L340.719 96.9797L331.787 103.952L335.199 92.6709L326.267 85.6991H337.307L340.719 74.4185Z" fill="#CD4B91"/>
<path d="M340.719 74.4185L344.13 85.6991H355.17L346.239 92.6709L349.65 103.952L340.719 96.9797L331.787 103.952L335.199 92.6709L326.267 85.6991H337.307L340.719 74.4185Z" fill="#CD4B91"/>
<path d="M313.585 82.037L315.047 87.6773H319.778L315.951 91.1632L317.413 96.8035L313.585 93.3176L309.757 96.8035L311.219 91.1632L307.391 87.6773H312.123L313.585 82.037Z" fill="#CD4B91"/>
</svg>
